<svg width="512" height="512" viewBox="0 0 512 512" fill="none" xmlns="http://www.w3.org/2000/svg">
<path d="M416 0H96C42.9807 0 0 42.9807 0 96V416C0 469.019 42.9807 512 96 512H416C469.019 512 512 469.019 512 416V96C512 42.9807 469.019 0 416 0Z" fill="url(#paint0_linear_3_102)"/>
<path d="M76 100.554C177.25 58.5042 233.5 58.5042 256 86.5374V308C233.5 291.18 177.25 285.573 76 308V100.554Z" fill="white"/>
<path d="M256 86.5374C278.5 58.5042 334.75 58.5042 436 100.554V308C334.75 285.573 278.5 291.18 256 308V86.5374Z" fill="#F8FAFC"/>
<path d="M432.25 121H364.75C346.11 121 331 136.11 331 154.75V222.25C331 240.89 346.11 256 364.75 256H432.25C450.89 256 466 240.89 466 222.25V154.75C466 136.11 450.89 121 432.25 121Z" fill="#0A4BCF"/>
<path d="M386 155V222L436 188.5L386 155Z" fill="white"/>
<path d="M124.703 372V337.44H130.943V372H124.703ZM127.679 372V367.056H149.567V372H127.679ZM127.679 356.64V351.792H147.887V356.64H127.679ZM127.679 342.384V337.44H149.039V342.384H127.679Z" fill="white"/>
<path d="M170.899 372L163.363 361.056L153.187 347.52H160.051L166.867 357.456L177.763 372H170.899ZM163.843 357.264L170.707 347.52H177.427L166.771 361.488L163.843 357.264ZM166.243 361.776L158.851 372H152.179L163.363 357.504L166.243 361.776Z" fill="white"/>
<path d="M195.988 372C195.828 371.36 195.7 370.656 195.604 369.888C195.54 369.12 195.508 368.192 195.508 367.104H195.316V355.488C195.316 354.208 194.948 353.248 194.212 352.608C193.508 351.936 192.42 351.6 190.948 351.6C189.508 351.6 188.356 351.872 187.492 352.416C186.66 352.928 186.148 353.68 185.956 354.672H180.148C180.404 352.4 181.492 350.56 183.412 349.152C185.332 347.744 187.908 347.04 191.14 347.04C194.5 347.04 197.044 347.808 198.772 349.344C200.5 350.848 201.364 353.072 201.364 356.016V367.104C201.364 367.872 201.412 368.656 201.508 369.456C201.636 370.256 201.812 371.104 202.036 372H195.988ZM187.492 372.48C185.028 372.48 183.06 371.872 181.588 370.656C180.148 369.408 179.428 367.744 179.428 365.664C179.428 363.424 180.244 361.648 181.876 360.336C183.508 359.024 185.812 358.144 188.788 357.696L196.42 356.544V360.384L189.796 361.392C188.356 361.616 187.268 362.016 186.532 362.592C185.828 363.168 185.476 363.968 185.476 364.992C185.476 365.92 185.812 366.64 186.484 367.152C187.156 367.632 188.084 367.872 189.268 367.872C190.996 367.872 192.436 367.44 193.588 366.576C194.74 365.712 195.316 364.656 195.316 363.408L195.988 367.104C195.348 368.864 194.292 370.208 192.82 371.136C191.38 372.032 189.604 372.48 187.492 372.48Z" fill="white"/>
<path d="M207.489 372V347.52H213.393V353.28H213.537V372H207.489ZM223.953 372V356.208C223.953 354.768 223.585 353.712 222.849 353.04C222.145 352.336 221.137 351.984 219.825 351.984C218.673 351.984 217.617 352.256 216.657 352.8C215.697 353.344 214.929 354.112 214.353 355.104C213.809 356.096 213.537 357.248 213.537 358.56L212.913 352.944C213.745 351.152 214.945 349.728 216.513 348.672C218.081 347.584 219.905 347.04 221.985 347.04C224.481 347.04 226.449 347.76 227.889 349.2C229.329 350.608 230.049 352.432 230.049 354.672V372H223.953ZM240.417 372V356.208C240.417 354.768 240.065 353.712 239.361 353.04C238.657 352.336 237.649 351.984 236.337 351.984C235.153 351.984 234.081 352.256 233.121 352.8C232.161 353.344 231.409 354.112 230.865 355.104C230.321 356.096 230.049 357.248 230.049 358.56L228.993 352.944C229.793 351.152 231.009 349.728 232.641 348.672C234.273 347.584 236.161 347.04 238.305 347.04C240.865 347.04 242.865 347.776 244.305 349.248C245.777 350.688 246.513 352.608 246.513 355.008V372H240.417Z" fill="white"/>
<path d="M252.489 372V347.52H258.537V372H252.489ZM252.201 343.488V336.816H258.777V343.488H252.201Z" fill="white"/>
<path d="M264.958 372V347.52H270.862V353.28H271.006V372H264.958ZM282.142 372V356.544C282.142 355.04 281.758 353.904 280.99 353.136C280.222 352.368 279.102 351.984 277.63 351.984C276.35 351.984 275.198 352.272 274.174 352.848C273.182 353.424 272.398 354.224 271.822 355.248C271.278 356.272 271.006 357.456 271.006 358.8L270.382 352.944C271.214 351.152 272.43 349.728 274.03 348.672C275.63 347.584 277.55 347.04 279.79 347.04C282.446 347.04 284.51 347.792 285.982 349.296C287.486 350.8 288.238 352.8 288.238 355.296V372H282.142Z" fill="white"/>
<path d="M309.144 372C308.984 371.36 308.856 370.656 308.76 369.888C308.696 369.12 308.664 368.192 308.664 367.104H308.472V355.488C308.472 354.208 308.104 353.248 307.368 352.608C306.664 351.936 305.576 351.6 304.104 351.6C302.664 351.6 301.512 351.872 300.648 352.416C299.816 352.928 299.304 353.68 299.112 354.672H293.304C293.56 352.4 294.648 350.56 296.568 349.152C298.488 347.744 301.064 347.04 304.296 347.04C307.656 347.04 310.2 347.808 311.928 349.344C313.656 350.848 314.52 353.072 314.52 356.016V367.104C314.52 367.872 314.568 368.656 314.664 369.456C314.792 370.256 314.968 371.104 315.192 372H309.144ZM300.648 372.48C298.184 372.48 296.216 371.872 294.744 370.656C293.304 369.408 292.584 367.744 292.584 365.664C292.584 363.424 293.4 361.648 295.032 360.336C296.664 359.024 298.968 358.144 301.944 357.696L309.576 356.544V360.384L302.952 361.392C301.512 361.616 300.424 362.016 299.688 362.592C298.984 363.168 298.632 363.968 298.632 364.992C298.632 365.92 298.968 366.64 299.64 367.152C300.312 367.632 301.24 367.872 302.424 367.872C304.152 367.872 305.592 367.44 306.744 366.576C307.896 365.712 308.472 364.656 308.472 363.408L309.144 367.104C308.504 368.864 307.448 370.208 305.976 371.136C304.536 372.032 302.76 372.48 300.648 372.48Z" fill="white"/>
<path d="M320.646 372V347.52H326.55V353.28H326.694V372H320.646ZM337.83 372V356.544C337.83 355.04 337.446 353.904 336.678 353.136C335.91 352.368 334.79 351.984 333.318 351.984C332.038 351.984 330.886 352.272 329.862 352.848C328.87 353.424 328.086 354.224 327.51 355.248C326.966 356.272 326.694 357.456 326.694 358.8L326.07 352.944C326.902 351.152 328.118 349.728 329.718 348.672C331.318 347.584 333.238 347.04 335.478 347.04C338.134 347.04 340.198 347.792 341.67 349.296C343.174 350.8 343.926 352.8 343.926 355.296V372H337.83Z" fill="white"/>
<path d="M367.508 372V366.48L367.988 366.576C367.572 368.368 366.564 369.808 364.964 370.896C363.364 371.952 361.46 372.48 359.252 372.48C357.012 372.48 355.06 371.968 353.396 370.944C351.764 369.888 350.5 368.416 349.604 366.528C348.708 364.64 348.26 362.416 348.26 359.856C348.26 357.264 348.724 355.008 349.652 353.088C350.58 351.168 351.876 349.68 353.54 348.624C355.236 347.568 357.204 347.04 359.444 347.04C361.748 347.04 363.652 347.6 365.156 348.72C366.66 349.808 367.588 351.328 367.94 353.28L367.316 353.328V337.44H373.412V372H367.508ZM361.028 367.536C362.98 367.536 364.532 366.864 365.684 365.52C366.868 364.144 367.46 362.224 367.46 359.76C367.46 357.296 366.868 355.392 365.684 354.048C364.5 352.704 362.932 352.032 360.98 352.032C359.06 352.032 357.508 352.72 356.324 354.096C355.14 355.44 354.548 357.344 354.548 359.808C354.548 362.272 355.14 364.176 356.324 365.52C357.508 366.864 359.076 367.536 361.028 367.536Z" fill="white"/>
<path d="M390.985 372.48C388.393 372.48 386.105 371.936 384.121 370.848C382.169 369.76 380.649 368.256 379.561 366.336C378.473 364.384 377.929 362.16 377.929 359.664C377.929 357.168 378.473 354.976 379.561 353.088C380.649 351.2 382.169 349.728 384.121 348.672C386.105 347.584 388.393 347.04 390.985 347.04C393.609 347.04 395.897 347.584 397.849 348.672C399.801 349.728 401.321 351.2 402.409 353.088C403.497 354.976 404.041 357.168 404.041 359.664C404.041 362.16 403.481 364.384 402.361 366.336C401.273 368.256 399.753 369.76 397.801 370.848C395.849 371.936 393.577 372.48 390.985 372.48ZM390.985 367.632C392.265 367.632 393.417 367.312 394.441 366.672C395.465 366 396.265 365.072 396.841 363.888C397.417 362.672 397.705 361.248 397.705 359.616C397.705 357.216 397.065 355.328 395.785 353.952C394.537 352.576 392.937 351.888 390.985 351.888C389.033 351.888 387.417 352.576 386.137 353.952C384.857 355.328 384.217 357.216 384.217 359.616C384.217 361.248 384.505 362.672 385.081 363.888C385.689 365.072 386.489 366 387.481 366.672C388.505 367.312 389.673 367.632 390.985 367.632Z" fill="white"/>
<path d="M152.051 419.48C149.587 419.48 147.411 418.936 145.523 417.848C143.667 416.76 142.195 415.256 141.107 413.336C140.051 411.384 139.523 409.176 139.523 406.712C139.523 404.248 140.051 402.072 141.107 400.184C142.195 398.264 143.667 396.76 145.523 395.672C147.411 394.584 149.587 394.04 152.051 394.04C154.067 394.04 155.891 394.424 157.523 395.192C159.155 395.928 160.499 396.984 161.555 398.36C162.611 399.704 163.283 401.272 163.571 403.064H157.763C157.411 401.752 156.739 400.728 155.747 399.992C154.755 399.256 153.555 398.888 152.147 398.888C150.835 398.888 149.699 399.208 148.739 399.848C147.811 400.488 147.091 401.4 146.579 402.584C146.067 403.768 145.811 405.144 145.811 406.712C145.811 408.312 146.067 409.704 146.579 410.888C147.091 412.072 147.827 413 148.787 413.672C149.747 414.312 150.867 414.632 152.147 414.632C153.555 414.632 154.755 414.264 155.747 413.528C156.739 412.792 157.411 411.768 157.763 410.456H163.571C163.283 412.248 162.595 413.832 161.507 415.208C160.451 416.552 159.107 417.608 157.475 418.376C155.875 419.112 154.067 419.48 152.051 419.48Z" fill="white"/>
<path d="M178.922 419.48C176.33 419.48 174.042 418.936 172.058 417.848C170.106 416.76 168.586 415.256 167.498 413.336C166.41 411.384 165.866 409.16 165.866 406.664C165.866 404.168 166.41 401.976 167.498 400.088C168.586 398.2 170.106 396.728 172.058 395.672C174.042 394.584 176.33 394.04 178.922 394.04C181.546 394.04 183.834 394.584 185.786 395.672C187.738 396.728 189.258 398.2 190.346 400.088C191.434 401.976 191.978 404.168 191.978 406.664C191.978 409.16 191.418 411.384 190.298 413.336C189.21 415.256 187.69 416.76 185.738 417.848C183.786 418.936 181.514 419.48 178.922 419.48ZM178.922 414.632C180.202 414.632 181.354 414.312 182.378 413.672C183.402 413 184.202 412.072 184.778 410.888C185.354 409.672 185.642 408.248 185.642 406.616C185.642 404.216 185.002 402.328 183.722 400.952C182.474 399.576 180.874 398.888 178.922 398.888C176.97 398.888 175.354 399.576 174.074 400.952C172.794 402.328 172.154 404.216 172.154 406.616C172.154 408.248 172.442 409.672 173.018 410.888C173.626 412.072 174.426 413 175.418 413.672C176.442 414.312 177.61 414.632 178.922 414.632Z" fill="white"/>
<path d="M196.427 419V394.52H202.331V400.28H202.475V419H196.427ZM213.611 419V403.544C213.611 402.04 213.227 400.904 212.459 400.136C211.691 399.368 210.571 398.984 209.099 398.984C207.819 398.984 206.667 399.272 205.643 399.848C204.651 400.424 203.867 401.224 203.291 402.248C202.747 403.272 202.475 404.456 202.475 405.8L201.851 399.944C202.683 398.152 203.899 396.728 205.499 395.672C207.099 394.584 209.019 394.04 211.259 394.04C213.915 394.04 215.979 394.792 217.451 396.296C218.955 397.8 219.707 399.8 219.707 402.296V419H213.611Z" fill="white"/>
<path d="M245.947 419L233.227 384.44H239.755L250.171 414.584H249.115L259.531 384.44H265.723L253.051 419H245.947Z" fill="white"/>
<path d="M269.646 419V394.52H275.694V419H269.646ZM269.358 390.488V383.816H275.934V390.488H269.358Z" fill="white"/>
<path d="M299.446 419V413.48L299.926 413.576C299.51 415.368 298.502 416.808 296.902 417.896C295.302 418.952 293.398 419.48 291.19 419.48C288.95 419.48 286.998 418.968 285.334 417.944C283.702 416.888 282.438 415.416 281.542 413.528C280.646 411.64 280.198 409.416 280.198 406.856C280.198 404.264 280.662 402.008 281.59 400.088C282.518 398.168 283.814 396.68 285.478 395.624C287.174 394.568 289.142 394.04 291.382 394.04C293.686 394.04 295.59 394.6 297.094 395.72C298.598 396.808 299.526 398.328 299.878 400.28L299.254 400.328V384.44H305.35V419H299.446ZM292.966 414.536C294.918 414.536 296.47 413.864 297.622 412.52C298.806 411.144 299.398 409.224 299.398 406.76C299.398 404.296 298.806 402.392 297.622 401.048C296.438 399.704 294.87 399.032 292.918 399.032C290.998 399.032 289.446 399.72 288.262 401.096C287.078 402.44 286.486 404.344 286.486 406.808C286.486 409.272 287.078 411.176 288.262 412.52C289.446 413.864 291.014 414.536 292.966 414.536Z" fill="white"/>
<path d="M322.778 419.48C320.186 419.48 317.914 418.936 315.962 417.848C314.042 416.76 312.538 415.256 311.45 413.336C310.394 411.416 309.866 409.208 309.866 406.712C309.866 404.216 310.394 402.024 311.45 400.136C312.538 398.216 314.042 396.728 315.962 395.672C317.882 394.584 320.122 394.04 322.682 394.04C325.114 394.04 327.226 394.552 329.018 395.576C330.81 396.568 332.202 397.976 333.194 399.8C334.186 401.624 334.682 403.752 334.682 406.184C334.682 406.632 334.666 407.048 334.634 407.432C334.602 407.816 334.554 408.2 334.49 408.584H313.61V404.36H329.834L328.586 405.512C328.586 403.208 328.058 401.48 327.002 400.328C325.946 399.176 324.474 398.6 322.586 398.6C320.538 398.6 318.906 399.304 317.69 400.712C316.506 402.12 315.914 404.152 315.914 406.808C315.914 409.432 316.506 411.448 317.69 412.856C318.906 414.232 320.618 414.92 322.826 414.92C324.106 414.92 325.226 414.68 326.186 414.2C327.146 413.72 327.85 412.984 328.298 411.992H334.01C333.21 414.296 331.85 416.12 329.93 417.464C328.042 418.808 325.658 419.48 322.778 419.48Z" fill="white"/>
<path d="M350.672 419.48C348.08 419.48 345.792 418.936 343.808 417.848C341.856 416.76 340.336 415.256 339.248 413.336C338.16 411.384 337.616 409.16 337.616 406.664C337.616 404.168 338.16 401.976 339.248 400.088C340.336 398.2 341.856 396.728 343.808 395.672C345.792 394.584 348.08 394.04 350.672 394.04C353.296 394.04 355.584 394.584 357.536 395.672C359.488 396.728 361.008 398.2 362.096 400.088C363.184 401.976 363.728 404.168 363.728 406.664C363.728 409.16 363.168 411.384 362.048 413.336C360.96 415.256 359.44 416.76 357.488 417.848C355.536 418.936 353.264 419.48 350.672 419.48ZM350.672 414.632C351.952 414.632 353.104 414.312 354.128 413.672C355.152 413 355.952 412.072 356.528 410.888C357.104 409.672 357.392 408.248 357.392 406.616C357.392 404.216 356.752 402.328 355.472 400.952C354.224 399.576 352.624 398.888 350.672 398.888C348.72 398.888 347.104 399.576 345.824 400.952C344.544 402.328 343.904 404.216 343.904 406.616C343.904 408.248 344.192 409.672 344.768 410.888C345.376 412.072 346.176 413 347.168 413.672C348.192 414.312 349.36 414.632 350.672 414.632Z" fill="white"/>
<path d="M377.631 419.48C374.239 419.48 371.535 418.776 369.519 417.368C367.503 415.928 366.399 413.944 366.207 411.416H371.727C371.887 412.664 372.479 413.608 373.503 414.248C374.527 414.888 375.903 415.208 377.631 415.208C379.199 415.208 380.367 414.968 381.135 414.488C381.935 413.976 382.335 413.256 382.335 412.328C382.335 411.656 382.111 411.112 381.663 410.696C381.215 410.248 380.367 409.88 379.119 409.592L375.183 408.68C372.495 408.104 370.495 407.208 369.183 405.992C367.903 404.744 367.263 403.192 367.263 401.336C367.263 399.064 368.127 397.288 369.855 396.008C371.615 394.696 374.031 394.04 377.103 394.04C380.143 394.04 382.575 394.696 384.399 396.008C386.255 397.288 387.279 399.064 387.471 401.336H381.951C381.791 400.344 381.279 399.592 380.415 399.08C379.583 398.568 378.431 398.312 376.959 398.312C375.583 398.312 374.543 398.536 373.839 398.984C373.135 399.4 372.783 400.024 372.783 400.856C372.783 401.496 373.055 402.04 373.599 402.488C374.143 402.904 375.055 403.272 376.335 403.592L380.559 404.552C382.959 405.096 384.767 406.04 385.983 407.384C387.231 408.728 387.855 410.312 387.855 412.136C387.855 414.472 386.959 416.28 385.167 417.56C383.375 418.84 380.863 419.48 377.631 419.48Z" fill="white"/>
<defs>
<linearGradient id="paint0_linear_3_102" x1="0" y1="0" x2="0" y2="512" gradientUnits="userSpaceOnUse">
<stop stop-color="#1F3A56"/>
<stop offset="1" stop-color="#0B1A2A"/>
</linearGradient>
</defs>
</svg>
